<?xml version="1.0" encoding="UTF-8" standalone="no"?>
<svg
   xmlns:dc="http://purl.org/dc/elements/1.1/"
   xmlns:cc="http://creativecommons.org/ns#"
   xmlns:rdf="http://www.w3.org/1999/02/22-rdf-syntax-ns#"
   xmlns:svg="http://www.w3.org/2000/svg"
   xmlns="http://www.w3.org/2000/svg"
   xmlns:xlink="http://www.w3.org/1999/xlink"
   version="1.1"
   id="svg2"
   height="372.98016"
   width="283.46457">
  <defs
     id="defs4">
    <linearGradient
       id="linearGradient3828">
      <stop
         id="stop3830"
         offset="0"
         style="stop-color:#838280;stop-opacity:1" />
      <stop
         id="stop3832"
         offset="1"
         style="stop-color:#ffffff;stop-opacity:1" />
    </linearGradient>
    <linearGradient
       y2="188.25957"
       x2="77.458984"
       y1="197.86115"
       x1="77.458984"
       gradientTransform="matrix(1.0371389,0,0,1.0239088,-2.9096725,849.23083)"
       gradientUnits="userSpaceOnUse"
       id="linearGradient3040"
       xlink:href="#linearGradient3828" />
  </defs>
  <metadata
     id="metadata7">
    <rdf:RDF>
      <cc:Work
         rdf:about="">
        <dc:format>image/svg+xml</dc:format>
        <dc:type
           rdf:resource="http://purl.org/dc/dcmitype/StillImage" />
        <dc:title></dc:title>
      </cc:Work>
    </rdf:RDF>
  </metadata>
  <g
     transform="translate(23.076925,-789.95888)"
     id="layer1">
    <g
       id="g3103">
      <g
         id="g3091"
         transform="translate(-340,0.00365501)" />
      <g
         transform="matrix(1.8648985,0,0,1.8648985,-23.076921,-799.6096)"
         id="g4204">
        <path
           transform="translate(-340,0.00366)"
           style="fill:#000000"
           d="m 340.0625,1037.6979 -1.4e-4,-185.33963 31.29311,0 0,5.6211 29.18359,0 -0.002,-5.6211 30.97562,0 -10e-4,5.6211 29.17969,0 10e-4,-5.6211 31.28777,0 1.4e-4,185.29403 c -0.13125,4.1659 -1.82596,7.7643 -4.38496,10.2819 -2.79231,2.7472 -6.52244,4.371 -10.6139,4.4241 l -121.87724,0 c -4.18016,0.024 -8.35965,-1.8735 -11.21309,-5.0205 -2.07577,-2.2893 -3.71577,-5.666 -3.82878,-9.6399 z"
           id="path3055" />
        <path
           transform="translate(-340,0.00366)"
           id="path3057"
           d="m 490.95313,1037.9459 -0.0921,-91.19876 0.0921,-93.35762 -29.23047,0 0,5.61719 -31.24219,0 0,-5.61719 -28.91406,0 0,5.61719 -31.23829,0 0,-5.61719 -29.23437,0 0.0951,93.35762 -0.0951,91.20856 c 0.18506,3.6232 1.64322,6.6625 3.90747,9.0618 2.49776,2.5909 5.80405,4.0648 9.43841,4.3095 l 122.86515,0 c 4.23633,-0.1539 7.66481,-1.9855 10.0271,-4.6091 2.22281,-2.4687 3.46208,-5.4409 3.62125,-8.772 z"
           style="fill:#ffed00;fill-opacity:1" />
        <g
           transform="matrix(0.1470327,0,0,0.1451571,82.334245,788.22331)"
           id="g3845">
          <path
             style="fill:#000000;stroke:none"
             d="m -121.34375,616.71875 -0.25,12.90625 c -2.49885,0.004 -2.87242,-0.37 -8.34375,0.5 l -6.8125,-7.59375 0,16.5625 c -15.11178,8.72418 -15.63506,18.21428 -25,27.90625 -5.81949,8.03015 -14.3818,8.16003 -15.15625,19.4375 l 0.5,10.96875 c 1.5097,5.98932 4.22325,7.43797 9.09375,0.65625 5.01475,-5.56733 4.03641,-2.00253 2.78125,2 l 0,4.8125 c 10.05911,-0.18374 8.00682,1.42558 12.875,-4.03125 2.42414,-6.12609 6.19056,-9.23924 10.71875,-10.65625 5.64626,-1.76685 6.80283,4.38765 19.34375,0.0312 -1.02752,16.17394 0.46016,33.72965 -6.8125,46.46875 -4.28508,7.27471 -6.57318,14.96613 -5.8125,23.25 -1.43971,17.80633 -8.40588,16.5195 2.78125,45.4375 -12.67561,1.44597 -18.25126,7.34121 -29.00709,8.56749 -12.59648,1.43613 -17.76195,-1.56115 -27.58666,-0.72374 -12.09902,1.26008 -17.05386,9.9448 -9.59375,20.6875 7.9079,13.48571 16.71719,27.09797 14.53125,39.28125 1.68746,10.31972 -1.402,11.09495 -3.15625,14.53125 -7.95286,8.99439 -15.85072,18.84926 -24.125,23.34375 -5.69321,2.83448 -10.24799,7.32776 -12.25,15.53125 -1.54289,5.04097 -4.66925,9.17709 -8.5625,12.875 -7.70884,4.88333 -6.95253,18.91173 -3.56834,27.27467 10.26848,-5.64808 20.21166,-12.31539 29.81834,-16.39967 l -1.78125,-15.65625 c 0.60103,-1.27122 0.21198,-8.39043 4.875,-8.8125 8.89802,-0.80541 7.24219,-4.22289 8.53125,-7.875 9.15861,-14.33946 23.5657,-12.29882 31.3125,-22.46875 5.81669,6.41853 11.54412,15.07701 24.875,17.4375 2.98367,-14.47415 -0.13042,-22.84784 -3.40625,-31.0625 l -9.84375,-0.5 48.46875,-28.03125 c 6.41919,0.32644 12.76459,-4.43166 16.40625,-10.5 37.94024,5.25298 63.43598,9.69976 96.75,-6.1875 -8.52872,27.45629 4.70784,22.2435 30.03125,40.65625 -17.08785,22.64742 -43.06473,24.81917 -41.90625,40.90625 -13.54313,8.58743 -14.42245,22.42682 -14.40625,36.625 l 24.25,-11.59375 C 19.43388,939.64323 15.73082,931.34907 12,923.06245 c 3.55098,-2.85776 6.76772,-3.49815 9.84375,-3.03125 2.17482,0.10343 4.62081,0.94936 4.5,-5.375 0.79547,-5.39731 -0.0469,-7.74106 6.34375,-10.28125 L 78.40625,883.9062 c 7.76094,-5.92778 6.58102,-17.04489 -0.8125,-16.09375 -12.75452,-3.63776 -16.5273,-9.02251 -15,-16.46875 1.38966,-3.19612 3.55063,-5.31329 8.25,-3.78125 l 28.53125,1.75 c 26.41471,7.262 42.0967,31.69087 36.5625,71.4375 -5.87263,8.43191 -7.04426,12.50587 -6.9375,17.09375 -8.48042,5.86029 -10.38937,17.41084 -12.21875,27.90625 l 29.3125,-9.09375 c 3.16811,-1.85221 7.70455,-1.42209 7.875,-8.4375 0.89043,-6.62273 -1.01893,-8.78985 -2.8125,-12.28125 -0.93404,-5.43839 0.53145,-9.18648 5.78125,-10.34375 8.04348,-7.96976 4.6216,-16.84954 1.03125,-25.75 -10.11546,-15.75146 -12.06316,-34.83202 -9.34375,-55.8125 1.01231,-11.70481 -3.51721,-13.43012 -9.59375,-12.375 -6.42372,0.33307 -12.35343,-0.32 -17.28125,-2.8125 -8.20502,-4.23478 -8.97504,-9.18746 -5.65625,-17.25 5.00857,-16.85421 -2.06491,-29.81819 -6.625,-36.53125 15.88563,-0.89919 16.34411,0.22327 29.8125,8.84375 l 0.75,2.65625 c 7.37223,4.73067 13.67593,7.45272 20.71875,9.21875 -8.56138,-4.32203 -9.63195,-9.49791 -15.03125,-13.53125 -3.56575,-2.66366 -8.43097,-3.71818 -12,-6.40625 17.06067,1.17806 18.85359,10.45194 30.15625,18.09375 8.10596,5.4805 20.73463,8.60379 31.1875,10.125 15.24372,2.21844 35.29478,-4.97028 48.96875,-8.3125 6.09084,-1.48874 18.69189,3.87284 25.8125,-1.21875 -8.87211,0.61406 -15.31467,-6.06199 -26.78125,-4.875 -11.05035,1.14391 -13.73433,4.92655 -33.34375,6.625 5.39778,-4.23016 8.90897,-9.72159 21.96875,-8.84375 l 9.875,-3.28125 c -3.14875,-0.91804 -6.25507,-1.08981 -9.96875,-0.8125 -3.02058,0.22556 -7.80929,0.23855 -10,-0.9375 12.1034,-5.3449 17.94951,0.82674 25.15625,-0.34375 6.84962,-1.11249 11.16009,-1.52309 16.78125,-6.75 -6.99458,1.26977 -13.62854,3.6383 -17.6875,2.9375 -13.34241,-2.30363 -18.65041,-3.4732 -25.5,-0.15625 1.56338,-2.72614 6.57986,-3.94544 14.46875,-5.15625 6.38163,-0.97947 10.46418,-4.67518 15.5625,-7.21875 -5.49528,0.29092 -6.37657,1.75335 -9.53125,2.3125 -3.39669,0.60203 -6.59825,0.26198 -8.625,-1.28125 2.52856,-1.62133 7.39475,-3.08645 10.84375,-3.03125 3.69797,0.0592 6.31705,-1.86011 10.59375,-3.78125 -6.31345,-0.8951 -12.62405,-1.23245 -18.9375,-0.78125 8.60301,-4.06934 11.35928,-8.47883 14.40625,-12.875 -5.60152,2.42966 -6.34098,5.1475 -17.375,6.625 -5.20614,0.69711 -7.29344,3.38056 -15.1875,4.25 2.48716,-2.21015 3.44075,-6.00494 10.90625,-7.53125 11.12413,-2.27433 8.27359,-5.54854 12.5625,-8.375 -3.29103,1.83989 -6.27289,4.11105 -10.84375,4.03125 l 2,-3.53125 c -5.31809,3.17218 -12.919,2.2295 -22.96875,5.5 -8.71577,2.83639 -19.10939,2.35518 -23.75,-0.46875 -33.20802,-16.51158 -40.31811,-10.61444 -57.3125,6.3125 -8.61689,4.94098 -19.33956,5.14739 -26.53125,3.4375 -51.50302,-37.56527 -124.70734,18.45284 -150.75,-26.65625 6.24127,0.88388 3.60267,5.71493 14.375,6.3125 3.79401,-6.61415 13.3074,-3.91485 19.21875,-8.59375 l -10.875,-1 c 1.87513,-2.31831 9.48515,-5.57155 14.65625,-5.21875 5.4279,0.37032 11.44033,-0.39444 14.90625,-5.40625 -5.86785,0.93515 -11.10326,-0.9613 -13.03125,-2 -3.42714,-1.84636 -7.60879,-2.60571 -12.25,-2.78125 8.41368,-0.39663 12.32168,-2.97225 17.1875,-3.1875 8.47072,-0.37473 14.94278,3.24739 21.96875,-3.375 -10.15409,3.06218 -12.47867,-4.01148 -30.3125,-0.25 -3.30243,0.69654 -18.82078,3.36658 -26.5,-3.28125 11.36479,0.82676 15.28896,-2.97627 23.34375,-3.71875 8.3612,-0.77072 13.76635,5.0041 25.65625,-2.09375 -5.83423,-0.0929 -11.12203,1.51998 -16.65625,-0.1875 -8.51462,-2.62702 -10.91073,-3.99845 -17.0625,-3.59375 0.96855,-1.50818 5.25189,-2.76252 10.21875,-3.9375 -5.73139,-1.77703 -8.41735,0.50485 -12.40625,0.59375 -4.528,0.1009 -8.02804,-1.89946 -12.34375,-6 8.3344,-2.27553 16.4599,-3.28168 20.9375,-10.1875 6.52866,-10.06917 18.08266,-4.17048 23.75,-14.3125 -10.61254,4.30348 -20.78482,-0.56809 -31.3125,4.71875 -15.20191,7.63417 -17.80876,0.69013 -27.78125,-1.1875 7.85169,0.17133 18.69644,4.66484 26,-3.625 8.15527,-9.25658 13.61411,-0.28967 26.53125,-9.78125 -8.11879,1.81181 -12.46255,-1.28076 -20.15625,0.96875 -9.0816,2.65531 -9.11487,7.0815 -17.59375,7.1875 -5.28871,0.0661 -18.57001,-1.70555 -29.90625,-7.625 -8.61226,-3.97931 -13.43356,-14.14979 -20.5625,-17.15625 -6.73889,-2.84197 -11.85642,-0.7506 -21.125,0.21875 -3.36717,-7.08428 -6.72658,-10.85449 -10.09375,-14.65625 z M -168.625,836.75 c 6.66952,0.11738 12.32457,6.03147 26.3125,6.75 -2.66107,3.70787 -7.48002,6.01051 -11.8125,12.59375 -4.0336,6.12909 -7.77971,10.34717 -11.40625,12.40625 -1.88676,-4.02033 -4.09659,-7.06086 -6.3125,-10.09375 l 1.875,-21.59375 c 0.45652,-0.047 0.89912,-0.0703 1.34375,-0.0625 z"
             id="path2996" />
          <path
             style="fill:#aaa8a9;fill-opacity:1;stroke:none"
             d="m -212.26162,944.27586 c -13.77259,0.10153 -22.04283,-2.42487 -21.46574,16.54125 9.79068,-3.04303 21.48144,-9.33183 21.46574,-16.54125 z"
             id="path3769" />
          <path
             style="fill:#aaa8a9;fill-opacity:1;stroke:none"
             d="m -145.53572,885.21933 c 4.07243,4.12367 6.44161,10.51832 4.82143,22.23214 -9.92871,-2.93366 -16.11292,-8.5247 -18.66071,-16.69643 2.16231,-2.72246 4.62383,-4.74677 7.5,-5.80357 -1.33304,4.96578 -1.02346,9.33223 -0.71429,13.125 2.11077,-5.56794 4.24354,-11.01857 7.05357,-12.85714 z"
             id="path3771" />
          <path
             style="opacity:0.98000004;fill:#aaa8a9;fill-opacity:1;stroke:none"
             d="m -130.18673,815.35514 c -0.81951,4.76109 -1.39815,9.46196 -0.88388,13.8896 -19.88608,4.25925 -21.93047,-2.3932 -30.43085,-2.39911 -4.46884,-1.0001 -5.7201,2.25744 -1.01015,3.15672 l 14.39467,4.04061 c -7.71264,-0.21556 -15.62528,-0.53112 -26.64277,-2.39911 -4.32557,-0.82914 -4.63776,2.64003 -1.89403,3.91434 6.17325,2.66532 -1.19856,13.145 0.16227,24.70831 0.67947,5.77364 3.72064,6.39876 8.55029,10.52076 l -8.9651,3.66181 c -3.15251,-20.73073 -9.89738,-31.99069 -16.66752,-43.18403 -4.50972,-3.70704 -1.46702,-15.35958 7.57614,-14.52093 13.59614,-0.2509 12.92306,5.14322 27.78269,4.92788 15.78155,-0.22869 17.92788,-6.86714 28.02824,-6.31685 z"
             id="path3773" />
          <path
             style="fill:#aaa8a9;fill-opacity:1;stroke:none"
             d="m 58.21428,844.50504 c -10.532392,9.53642 0.417089,25.3354 15.924771,26.86799 6.743719,1.77621 4.144641,8.73647 -0.481262,9.99669 -7.804393,3.86422 -15.319465,5.97563 -22.428009,9.11469 -10.012491,4.42142 -19.21848,9.0486 -27.29046,14.99203 -2.13241,1.17364 -2.87686,2.90217 -3.22362,4.9217 -0.19625,5.51303 -2.20429,6.21299 -6.16569,7.35675 -7.36599,0.68416 -4.82038,4.26021 -6.15716,9.60729 l -13.92857,1.78572 c 4.39238,-8.17751 8.35492,-6.53206 8.55424,-11.0844 0.41608,-9.50262 11.12723,-13.99163 21.36406,-19.54614 7.4854,-4.06158 12.65653,-12.12102 20.97456,-15.97661 5.57098,-4.9668 3.73055,-7.90465 0.35714,-10.35714 L 20.53571,853.96932 c -5.37918,-3.4247 -4.95208,-7.17197 -1.78571,-11.07142 5.62152,-9.77329 13.55059,-11.63501 22.49356,-10.02046 z"
             id="path3775" />
          <path
             style="fill:#aaa8a9;fill-opacity:1;stroke:none"
             d="m 9.10714,930.21933 c -5.66536,0.851 -11.59178,2.13709 -15.89286,0.71428 -2.97388,4.5756 -2.75596,8.75223 -1.96428,12.85714 3.70769,-3.79908 6.3438,-2.2385 9.59175,-4.57448 2.68855,-1.93366 7.92926,-0.059 8.26539,-8.99694 z"
             id="path3777" />
          <path
             style="fill:#aaa8a9;fill-opacity:1;stroke:none"
             d="m 146.97388,946.67497 c -14.20187,-3.2336 -20.39003,-3.41435 -20.45559,-1.26269 -7.90667,11.83792 -5.40691,15.18548 -1.89404,13.00572 7.64824,-1.43423 4.25698,-3.71615 10.72847,-3.92273 4.52641,-0.14449 10.73238,1.928 11.62116,-7.8203 z"
             id="path3779" />
          <path
             style="fill:#ffffff;stroke:none"
             d="m -135.26786,627.54075 c 4.1018,4.34551 6.39266,8.31198 0.35714,10.53572 z"
             id="path3781" />
          <path
             style="fill:#aaa8a9;fill-opacity:1;stroke:none"
             d="m -52.40498,679.74216 c 0.92771,4.29594 3.81226,4.95775 7.07107,4.9245 -1.50386,-3.34783 -4.24482,-4.22145 -7.07107,-4.9245 z"
             id="path3783" />
          <path
             style="fill:#aaa8a9;fill-opacity:1;stroke:none"
             d="m -59.72859,676.45917 c -2.9701,-3.22424 -5.78543,-4.34663 -9.09137,-5.55584 0.50721,11.18825 18.4895,20.41902 26.01142,19.69797 -6.97445,-5.54841 -15.87733,-7.12072 -20.07677,-13.00571 z"
             id="path3785" />
          <path
             style="fill:#aaa8a9;fill-opacity:1;stroke:none"
             d="m -57.58201,696.53594 c 9.51227,9.07447 18.89827,14.74081 28.41054,17.42514 -10.70977,0.21763 -19.92144,-1.40855 -26.26397,-6.56599 -0.74351,-3.45442 -1.18783,-7.45817 -2.14657,-10.85915 z"
             id="path3787" />
          <path
             style="fill:#aaa8a9;fill-opacity:1;stroke:none"
             d="m -53.41513,713.20346 c 4.96658,2.35703 9.59644,5.05077 13.88959,8.08123 -7.31487,0.41522 -12.93915,-1.1271 -13.88959,-8.08123 z"
             id="path3789" />
          <path
             style="fill:#aaa8a9;fill-opacity:1;stroke:none"
             d="m -40.15688,727.72441 c 3.4036,2.45274 6.77544,5.08805 11.49048,0 -4.8995,0.85547 -8.24307,0.4662 -11.49048,0 z"
             id="path3791" />
          <path
             style="fill:#aaa8a9;fill-opacity:1;stroke:none"
             d="m -37.12642,721.41095 c 3.82149,-0.3577 5.59702,1.75967 11.85317,-1.26746 3.39377,-1.64212 7.64024,-0.99155 11.75914,-1.63672 -3.97397,-0.66094 -8.36917,-2.14572 -11.9219,-0.30144 -5.28576,2.74392 -7.79361,1.52036 -11.69041,3.20562 z"
             id="path3793" />
          <path
             style="fill:#aaa8a9;fill-opacity:1;stroke:none"
             d="m 126.96428,772.18361 c 10.44052,-4.15985 13.69622,-9.64178 47.32716,4.75209 9.50069,4.06624 27.47869,6.77357 43.5657,2.74791 -12.23602,11.92736 -30.61529,11.11472 -43.78321,8.08104 -15.51832,-3.57519 -18.64279,-17.15056 -47.10965,-15.58104 z"
             id="path3795" />
          <path
             style="fill:#aaa8a9;fill-opacity:1;stroke:none"
             d="m 176.60714,765.3979 c 3.91881,5.25217 13.64577,7.18541 30.89286,4.82142 z"
             id="path3797" />
          <path
             id="path3799"
             d="m 141.16154,746.00534 c 4.71541,-4.55052 14.44831,-6.85218 29.3017,-0.48449 -11.86184,-1.00217 -21.72513,-0.89404 -29.3017,0.48449 z"
             style="fill:#aaa8a9;fill-opacity:1;stroke:none" />
          <path
             style="fill:#aaa8a9;fill-opacity:1;stroke:none"
             d="M -119.28125,624.15625 -120,635.9375 c -7.47332,-0.42516 -9.38148,7.24306 -13.5,10 -5.34107,3.57531 -10.17869,4.24898 -15.0625,9.28125 -5.38876,8.58958 -11.30982,16.01831 -18.59375,20.34375 -4.929,3.49414 -7.31924,9.14677 -6.0625,17.875 0.18426,6.17096 2.01366,6.69508 5.53125,1.4375 3.94672,-2.4069 9.16796,-7.67927 7.6875,2.125 -7.2619,7.55951 2.73363,6.72174 4.28125,1.78125 l 6.78125,-8.5625 c 3.40935,-2.73974 1.41108,-3.55551 -1.78125,-3.9375 -5.59301,2.12172 -6.3627,1.3238 -0.53125,-3.21875 7.6609,-3.77995 10.91531,8.70025 23.53125,3.625 6.61927,-2.66286 9.19641,-7.80672 12.53125,-17.1875 1.21625,-2.98453 8.44222,-6.06186 3.03125,1.96875 -2.06721,7.65072 -4.1272,15.23501 -7.125,15.90625 2.10504,4.24566 2.76018,11.1563 2.5,15.875 -0.61071,5.15334 2.397,5.08124 2.6875,-0.1875 l -0.1875,-5 c -0.35715,-3.12362 3.57589,-4.17739 3.21875,0.375 -4.01209,26.81139 -14.36626,28.18007 -18.21875,66.0625 l 3.9375,-1.4375 c 0.57811,13.36272 -7.31379,14.43202 -0.71875,29.65625 7.90755,-12.74954 12.45275,-9.37196 22.9375,-20.53125 4.20791,-3.97563 7.37192,-6.39412 3.125,2.3125 -13.71576,21.13286 -11.10843,3.85895 -18.21875,22.4375 -3.2725,8.55073 -2.19621,16.88569 -2.84375,31.3125 -4.51114,4.56094 -7.74265,10.64767 -14.625,16.0625 -21.24168,16.71236 -19.57896,25.1193 -31.8125,30.1875 -9.69571,4.36846 -10.82492,5.23633 -15.34375,14.46875 -5.57763,9.65313 -11.99453,18.82821 -23.21875,25.1875 -15.80283,4.88351 -9.07222,10.25183 -16.25,22.3125 -4.76327,3.7251 -8.56186,7.0348 3.03125,3.75 4.97449,1.72107 9.18062,-0.98392 11.78125,-13.03125 9.935,-17.42571 19.41312,-18.93925 29.28125,-26.96875 16.30954,-6.13093 10.56772,-14.12126 19.28125,-18.5625 12.48452,-9.02785 39.15138,-24.90524 54.28125,-31.25 7.81657,-3.27791 10.14081,-1.68228 11.4375,-8.75 -0.25962,-2.27457 0.80914,-4.99193 3.40625,-8.21875 8.91587,-5.97909 10.03959,-4.46967 6.59375,1.4375 -2.56299,2.96408 -4.18388,5.53464 3.5625,4.28125 21.47524,-0.45151 37.26969,4.27861 53.875,1.375 18.22072,-3.18609 35.32132,-9.17758 52.9375,-13.875 8.53202,0.58621 12.08774,-1.1343 3.1875,-8.59375 -6.28639,-5.95757 -9.37926,-9.88276 4.3125,-3.1875 11.07944,8.88169 14.49419,24.4406 35.15625,24.9375 15.74473,0.33429 31.36974,2.33761 46.78125,11.96875 5.23968,3.82644 10.7257,6.17674 14.375,11.84375 4.66824,7.37172 1.96665,10.54014 6.875,21.46875 3.65271,10.80067 5.33097,19.04137 5.53125,26.375 0.44704,16.36944 -4.93134,6.85668 -8.71875,22.3125 1.24146,6.28397 -3.93997,4.58508 -6.09375,6.625 7.04768,0.0239 18.41163,3.81044 17.875,-3.75 -3.13849,-15.07526 2.1323,-10.92939 8.03125,-18.03125 6.44383,-4.18095 2.68752,-12.46517 -6.34375,-25.78125 -2.52907,-3.72897 -2.04917,-12.78343 -5.96875,-24.0625 -0.89938,-4.36957 -1.59286,-3.89709 -2.15625,-0.875 -0.39584,4.58267 -2.97951,5.22866 -2.5,-1.625 0.70316,-6.84663 0.90051,-13.74588 -2.15625,-21.0625 -4.88095,-5.30633 3.20496,-4.96422 3.0625,-0.71875 2.69216,6.64392 3.17539,4.11148 3.03125,-1.0625 0.32365,-1.95424 0.091,-3.73579 -4.28125,-4.28125 -43.66492,-8.12021 -31.13593,-28.93585 -36.4375,-45.71875 -3.14287,-5.23811 1.1977,-5.7605 2.125,-2.875 l 2.5,5.71875 c 4.25145,8.95895 3.47156,1.96598 3.9375,-1.0625 1.52275,-4.25432 -3.28188,-10.6133 -5.34375,-16.0625 -3.27258,-4.19581 -3.62385,-6.9399 2.5,-6.4375 4.5347,-0.36224 8.83458,-2.52465 13.03125,-5.59375 5.96736,-6.10285 11.05205,-8.16084 19.28125,-9.53125 12.27081,-2.00091 27.06031,-1.48737 38.21875,2.125 30.21276,9.78092 38.82705,8.34841 55,0.84375 -25.70112,2.64019 -34.42746,-2.11794 -51.96875,-7.78125 -13.6575,-4.4094 -29.54829,-3.6696 -42.625,0.59375 -8.27614,1.74115 -12.77789,6.67968 -19.65625,9.96875 -18.06265,8.50745 -29.512693,-13.92759 -59.875,-15.96875 -38.59437,1.633 -82.9767,22.26733 -111.40625,0 -3.55627,-0.917 -7.36371,-1.58376 -8.9375,2.125 -6.47261,4.52381 -12.93176,9.03869 -18.9375,13.5625 -6.3095,5.59523 -8.5164,0.50299 -1.96875,-3.1875 11.0653,-1.38467 19.08339,-44.25579 8.21875,-79.84375 -1.78008,-4.99402 -0.33921,-9.33952 2.34375,-1.25 5.68123,14.26972 9.6366,29.26452 9.625,45.90625 -0.8584,7.63793 3.71215,7.46212 3.21875,0.875 -1.353329,-38.33201 -10.000561,-55.7801 -35.533955,-82.35194 -4.620345,-4.56188 -3.564935,-5.53427 1.278588,-1.77867 6.96927,5.4114 16.653367,13.88469 24.661617,21.03686 14.284829,12.75778 29.55958,12.33079 40.15625,6.53125 -22.8967,0.85203 -27.80842,-4.18752 -36.9375,-11.8125 -21.494123,-17.13461 -23.292731,-23.08784 -43.96875,-21.96875 l -1.96875,9.46875 c -2.14656,8.51732 -5.91841,3.52406 -4.46875,-1.15625 1.38936,-7.28852 2.14456,-14.09779 -2.5,-19.375 z"
             id="path3801" />
          <path
             id="path3803"
             d="m 190.0039,794.28747 c 2.60541,2.42721 7.50882,2.31558 15.38755,-1.08325 z"
             style="fill:#aaa8a9;fill-opacity:1;stroke:none" />
          <path
             style="fill:#aaa8a9;fill-opacity:1;stroke:none"
             d="m 217.68247,747.50176 c 1.72858,2.42721 4.98178,2.31558 10.20898,-1.08325 z"
             id="path3805" />
          <path
             style="fill:#ffffff;stroke:none"
             d="m -119.36492,624.13658 c -0.5829,0.0372 -0.50443,2.84282 -0.63508,4.11342 l -0.0416,7.49066 c -12.62528,1.92193 -2.48958,5.53585 -22.98967,15.38434 -5.9624,0.72001 -7.98876,4.43295 -8.625,9.25 L -167.71875,676 c -6.27683,3.27581 -6.50446,10.09917 -5.875,17.4375 0.31356,10.52548 4.8197,3.27386 9.0635,-1.13558 2.13582,-0.51441 5.65575,-3.14253 4.21775,4.54183 -7.74206,10.03104 6.89275,4.85346 3.6875,0.90625 3.1918,-5.97176 3.72469,-9.65229 1.5625,-11.09375 -2.80277,-2.19881 -0.65234,-4.65392 4.78125,-8.5 3.86604,-3.49005 5.35713,-3.56024 6.34375,-0.46875 9.66116,9.49174 18.53392,9.29467 25.3125,-0.15625 3.64406,-8.92539 0.74115,-15.15299 0.53125,-24.75 -0.18377,-8.40247 5.10381,-13.52428 1.9375,-22.65625 -0.85402,-3.54363 -2.7553,-6.01734 -3.20867,-5.98842 z m 17.70867,30.01967 c -1.76067,0.0348 -2.88668,3.08962 -2.75,12.09375 1.60237,21.16146 -2.02947,36.60634 -6.71875,48.1875 -8.07135,19.93385 -12.06909,37.22388 -10.90625,51.59375 2.3737,15.8989 12.8708,8.63912 23.1875,1.84375 -10.97754,29.58305 -11.37542,7.732 -18.9375,28.0625 -3.11311,8.36955 -4.20881,20.5761 -4,33.71875 -12.58072,13.28803 -30.33487,30.13473 -36.46875,38.25 -5.35259,7.08161 -20.32965,6.18989 -26.46875,24.15625 11.18628,2.34326 20.43878,-12.45069 30.90625,-18.75 9.57314,-5.7611 16.61755,-4.78794 33.84375,-23.40625 3.68526,-3.98308 9.40986,-1.62892 21.6875,-13.9375 7.39095,-7.40957 14.23315,-4.63344 22.59375,-9.40625 12.84382,8.84208 91.66826,11.34601 89.59375,-15.75 16.35446,1.06337 16.3776,0.82161 36.40625,20.28125 7.15582,6.95253 30.83528,5.49851 38.09375,6.1875 9.76548,0.92696 17.75558,3.26358 36.09375,16.5 10.63786,5.61587 18.32491,1.99476 7.6875,-11.46875 -17.96999,-5.21131 -29.41584,-7.71092 -34.90625,-17.375 -7.71638,-13.58219 1.0897,-23.06103 -0.3125,-42.84375 C 97.27902,773.57069 99.4609,764.84016 84.625,758 59.40024,745.14304 50.86938,750.96018 39.53125,753.65625 c -29.55286,9.58487 -58.64202,17.70751 -82.46875,8.96875 -7.77115,-4.7749 -14.37622,-5.78432 -26.4375,1.28125 -8.25325,3.64179 -15.76457,5.36854 -20.53125,0.875 14.35354,-36.93792 16.37477,-70.99845 -1.84375,-100.375 -3.403387,-3.8732 -7.332959,-10.3009 -9.90625,-10.25 z m 241.53125,236.375 c 2.60553,14.57593 3.98642,20.88126 2,28.15625 -1.9803,7.25259 -3.34135,0.62771 -7.65625,17.21875 -0.45985,1.76818 -4.3871,1.60053 -5.59375,3.75 14.59817,1.1472 6.57634,0.33442 11.03125,-10.375 1.93093,-3.51058 4.66967,-6.11779 7.21875,-8.9375 6.16257,-3.91395 4.61348,-11.52896 0,-15.75 -3.40721,-3.11738 -3.58347,-9.10173 -7,-14.0625 z m -347.0625,23.03125 c -3.29928,1.13764 -10.58755,3.10638 -11.53125,12.8125 -0.50056,5.1484 -3.85537,8.14279 -5.5,11.4375 -4.79717,4.53706 -2.80414,4.48156 3.15625,1.75 10.75789,-7.49487 3.17759,-15.96985 13.875,-26 z"
             id="path3832" />
          <path
             style="fill:#000000;stroke:none"
             d="m -146.72661,661.46946 -0.61778,8.03099 c 9.16251,-2.85579 12.759,-6.3664 14.98088,-10.03873 z"
             id="path3841" />
          <path
             style="fill:#000000;stroke:none"
             d="m -163.09747,686.9524 c -3.35897,-0.62716 -5.0817,1.76352 -6.64101,5.09658 -2.04028,-10.53734 6.69502,-10.92431 6.64101,-5.09658 z"
             id="path3843" />
        </g>
        <path
           id="path3894"
           d="m 75.002652,959.36017 c -34.114655,18.795 -57.861988,42.31393 -69.4718226,71.36323 4.9774356,15.2117 11.4945636,27.9106 35.1544916,0.6449 l 70.589629,-0.062 c 20.54678,24.5925 28.3474,15.4437 34.06521,0.058 -12.42255,-33.47993 -40.26253,-53.70301 -70.337508,-72.00429 z"
           style="fill:#2d74c5;fill-opacity:1;stroke:none" />
        <path
           id="path3896"
           d="M 0.76314977,939.79452 C 26.262174,940.71283 50.403274,947.44041 73.454423,958.83087 38.399969,974.93205 18.8398,1004.5512 1.0692183,1035.7317 Z"
           style="fill:#8abd32;fill-opacity:1;stroke:none" />
        <path
           style="fill:#8abd32;fill-opacity:1;stroke:none"
           d="m 151.11626,939.79451 c -25.49902,0.91832 -49.64012,7.6459 -72.691272,19.03635 35.054452,16.10118 54.614622,45.72034 72.385202,76.90084 z"
           id="path3898" />
        <g
           transform="matrix(1.0371389,0,0,1.0239088,371.17336,-23.510316)"
           id="g3810">
          <path
             style="fill:#000000;stroke:none"
             d="m -211.7659,936.92158 c -17.2212,0.33626 -30.86882,2.46101 -43.13153,5.9876 -15.58587,4.60968 -30.16013,11.28851 -41.31322,17.86755 -3.65473,2.13787 -7.38528,4.61362 -11.10411,7.33236 -9.3482,6.83422 -18.62231,15.20385 -26.43165,23.60156 -5.88424,6.32758 -12.47366,14.43085 -17.27894,22.78545 -3.96786,6.8987 -6.57561,13.107 -6.85263,20.352 -0.0623,2.5156 0.59892,5.6662 1.80812,8.1041 1.15169,2.3219 2.8984,4.3035 5.3683,5.6549 1.56024,0.874 3.53576,1.4645 5.71417,1.7835 5.00397,0.7329 10.67133,-0.5018 15.47679,-4.5514 3.95649,-3.271 7.73986,-8.3295 10.90077,-15.6651 -3.15181,3.7312 -6.10359,6.2048 -8.8542,7.8129 -6.07557,3.5518 -12.16257,3.9118 -15.27006,2.2119 -5.05838,-2.2049 -5.06354,-8.292 -3.83184,-13.0076 2.76469,-9.6543 12.65134,-22.1857 18.88473,-29.09224 3.54058,-3.87639 7.02179,-7.39757 10.44425,-10.60762 12.49894,-11.60298 23.04588,-18.65709 34.65351,-24.6013 20.70845,-10.61147 44.96234,-18.16197 70.953,-17.86548 z"
             id="path3890" />
          <path
             style="fill:#ffffff;stroke:none"
             d="m -322.58523,1035.7933 c -6.00564,5.1211 -14.97249,8.0936 -20.81122,5.2673 -3.36381,-1.6282 -7.01086,-6.8674 -3.19794,-16.8137 4.68324,-11.1565 11.82782,-19.9944 21.3177,-30.20904 10.20399,-10.6393 21.81344,-20.50041 33.3119,-27.13565 14.89982,-8.598 27.77991,-13.77876 39.27502,-17.09626 12.74488,-3.30843 20.99455,-5.57116 40.35551,-5.75415 l 0.0152,-6.1053 c -15.97493,0.36074 -28.30894,2.06275 -42.51203,6.01448 -3.76506,1.07446 -7.41537,2.28253 -10.97397,3.60363 -15.13384,5.9977 -26.44231,11.15973 -38.58547,19.70676 -8.85621,6.17392 -17.92424,14.15748 -25.54613,21.89264 -9.40798,10.00816 -17.37288,19.01569 -23.61998,32.35699 -2.43249,5.0065 -4.23035,12.4443 -2.75373,17.9559 0.9008,3.5699 2.99595,6.904 7.02123,8.7216 10.16646,3.8785 19.97999,-0.5086 26.70391,-12.4052 z"
             id="path3806" />
          <path
             style="fill:#000000;stroke:none"
             d="m -345.27046,1041.0973 c -2.0253,-1.6639 -3.66624,-3.5836 -3.96026,-8.1883 -0.0765,-3.8321 0.78973,-8.205 4.47553,-15.0398 6.50649,-11.7203 15.96632,-22.2568 25.95231,-31.6696 8.92848,-8.1715 17.11541,-14.706 26.33622,-20.1951 6.73178,-3.8742 13.85475,-7.5307 20.90654,-10.5461 19.18831,-7.97918 35.08297,-11.66283 52.29633,-12.20526 2.49601,-0.0787 4.9895,-0.16342 7.58529,-0.16342 l 0.0221,-4.1882 c -2.56206,0 -5.20245,0.007 -7.83431,0.19013 -20.98229,1.46108 -36.58367,5.13434 -55.00741,13.12745 -6.33952,2.7766 -14.81878,6.556 -21.11603,10.4368 -8.78556,5.4699 -17.68741,12.064 -26.71889,20.5215 -15.17724,14.4013 -21.21167,23.0845 -27.11112,32.648 -2.68153,4.937 -5.51826,10.1481 -6.28003,16.8094 -0.78461,6.8609 1.87653,11.4581 5.16764,13.6721 2.73083,2.0651 7.6892,2.8048 11.84254,1.8731 4.59454,-0.8638 9.13563,-4.1564 12.30001,-8.4656 -4.54899,2.7315 -13.14772,5.5936 -18.85643,1.3829 z"
             id="path3932" />
          <path
             style="fill:#134696;fill-opacity:1;stroke:none"
             d="m -212.30406,942.00889 c -27.45188,-0.2959 -55.74258,8.38076 -81.03282,23.35481 -13.55297,8.4142 -23.68499,16.8898 -35.07875,29.0198 -9.93642,11.02 -20.75163,24.816 -21.81225,36.6141 -0.3672,5.8257 1.9143,9.1693 4.55862,11.0819 2.46924,1.8262 7.71129,3.3056 15.04159,0.7239 -6.18712,5.7748 -14.41502,5.5963 -18.81613,3.0378 -4.18137,-2.556 -6.32656,-7.863 -5.0042,-14.953 1.9485,-9.9748 10.03526,-23.2711 23.92737,-38.2055 9.89683,-10.2878 21.26674,-20.3694 35.48523,-29.2225 32.19818,-17.47008 53.3579,-22.76059 82.71615,-23.52335 z"
             id="path3808" />
        </g>
        <g
           id="g3816"
           transform="matrix(-1.0371389,0,0,1.0239088,-219.17337,-23.510316)">
          <path
             id="path3818"
             d="m -211.7659,936.92158 c -17.2212,0.33626 -30.86882,2.46101 -43.13153,5.9876 -15.58587,4.60968 -30.16013,11.28851 -41.31322,17.86755 -3.65473,2.13787 -7.38528,4.61362 -11.10411,7.33236 -9.3482,6.83422 -18.62231,15.20385 -26.43165,23.60156 -5.88424,6.32758 -12.47366,14.43085 -17.27894,22.78545 -3.96786,6.8987 -6.57561,13.107 -6.85263,20.352 -0.0623,2.5156 0.59892,5.6662 1.80812,8.1041 1.15169,2.3219 2.8984,4.3035 5.3683,5.6549 1.56024,0.874 3.53576,1.4645 5.71417,1.7835 5.00397,0.7329 10.67133,-0.5018 15.47679,-4.5514 3.95649,-3.271 7.73986,-8.3295 10.90077,-15.6651 -3.15181,3.7312 -6.10359,6.2048 -8.8542,7.8129 -6.07557,3.5518 -12.16257,3.9118 -15.27006,2.2119 -5.05838,-2.2049 -5.06354,-8.292 -3.83184,-13.0076 2.76469,-9.6543 12.65134,-22.1857 18.88473,-29.09224 3.54058,-3.87639 7.02179,-7.39757 10.44425,-10.60762 12.49894,-11.60298 23.04588,-18.65709 34.65351,-24.6013 20.70845,-10.61147 44.96234,-18.16197 70.953,-17.86548 z"
             style="fill:#000000;stroke:none" />
          <path
             id="path3820"
             d="m -322.58523,1035.7933 c -6.00564,5.1211 -14.97249,8.0936 -20.81122,5.2673 -3.36381,-1.6282 -7.01086,-6.8674 -3.19794,-16.8137 4.68324,-11.1565 11.82782,-19.9944 21.3177,-30.20904 10.20399,-10.6393 21.81344,-20.50041 33.3119,-27.13565 14.89982,-8.598 27.77991,-13.77876 39.27502,-17.09626 12.73486,-3.30583 20.98157,-5.56761 40.30987,-5.75372 l 9.5e-4,-6.10437 c -15.94588,0.36364 -28.26681,2.06633 -42.45214,6.01312 -3.76506,1.07446 -7.41537,2.28253 -10.97397,3.60363 -15.13384,5.9977 -26.44231,11.15973 -38.58547,19.70676 -8.85621,6.17392 -17.92424,14.15748 -25.54613,21.89264 -9.40798,10.00816 -17.37288,19.01569 -23.61998,32.35699 -2.43249,5.0065 -4.23035,12.4443 -2.75373,17.9559 0.9008,3.5699 2.99595,6.904 7.02123,8.7216 10.16646,3.8785 19.97999,-0.5086 26.70391,-12.4052 z"
             style="fill:#ffffff;stroke:none" />
          <path
             id="path3822"
             d="m -345.27046,1041.0973 c -2.0253,-1.6639 -3.66624,-3.5836 -3.96026,-8.1883 -0.0765,-3.8321 0.78973,-8.205 4.47553,-15.0398 6.50649,-11.7203 15.96632,-22.2568 25.95231,-31.6696 8.92848,-8.1715 17.11541,-14.706 26.33622,-20.1951 6.73178,-3.8742 13.85475,-7.5307 20.90654,-10.5461 17.96808,-7.47177 33.27985,-11.17695 49.34342,-12.06337 3.40525,-0.18791 6.84428,-0.34071 10.34956,-0.2843 l -0.0304,-4.23056 c -3.65928,0.15922 -7.14866,0.15749 -10.50411,0.43132 -19.5376,1.59446 -34.53484,5.28852 -52.09649,12.90761 -6.33952,2.7766 -14.81878,6.556 -21.11603,10.4368 -8.78556,5.4699 -17.68741,12.064 -26.71889,20.5215 -15.17724,14.4013 -21.21167,23.0845 -27.11112,32.648 -2.68153,4.937 -5.51826,10.1481 -6.28003,16.8094 -0.78461,6.8609 1.87653,11.4581 5.16764,13.6721 2.73083,2.0651 7.6892,2.8048 11.84254,1.8731 4.59454,-0.8638 9.13563,-4.1564 12.30001,-8.4656 -4.54899,2.7315 -13.14772,5.5936 -18.85643,1.3829 z"
             style="fill:#000000;stroke:none" />
          <path
             id="path3824"
             d="m -212.36451,942.0081 c -3.47414,-0.0354 -6.97654,0.0729 -10.46965,0.31942 -24.08497,1.69966 -48.43601,9.97075 -70.50272,23.03618 -13.55297,8.4142 -23.68499,16.8898 -35.07875,29.0198 -9.93642,11.02 -20.75163,24.816 -21.81225,36.6141 -0.3672,5.8257 1.9143,9.1693 4.55862,11.0819 2.46924,1.8262 7.71129,3.3056 15.04159,0.7239 -6.18712,5.7748 -14.41502,5.5963 -18.81613,3.0378 -4.18137,-2.556 -6.32656,-7.863 -5.0042,-14.953 1.9485,-9.9748 10.03526,-23.2711 23.92737,-38.2055 9.89683,-10.2878 21.26674,-20.3694 35.48523,-29.2225 28.218,-15.31052 47.95791,-21.2665 72.16829,-23.01847 3.4006,-0.24608 6.88971,-0.40922 10.5026,-0.50369 z"
             style="fill:#134696;fill-opacity:1;stroke:none" />
        </g>
        <g
           style="stroke:#000080"
           transform="matrix(1.0371389,0,0,1.0239088,205.30064,-23.510316)"
           id="g3921">
          <ellipse
             ry="8.0048189"
             rx="10.845238"
             cy="114.75053"
             cx="-145.56227"
             style="fill:#ffffff;fill-opacity:1;fill-rule:nonzero;stroke:#000080"
             id="path3900"
             transform="matrix(1.061601,0,0,1.0696345,29.882599,837.36276)" />
          <g
             style="stroke:#000080"
             id="g3908">
            <path
               transform="translate(0,852.36218)"
               id="path3902"
               d="m -116.93675,101.13865 c -6.87721,3.09466 -12.83827,6.47368 -18.14917,9.95991"
               style="fill:none;stroke:#000080;stroke-width:1px;stroke-linecap:butt;stroke-linejoin:miter;stroke-opacity:1" />
            <path
               style="fill:none;stroke:#000080;stroke-width:1px;stroke-linecap:butt;stroke-linejoin:miter;stroke-opacity:1"
               d="m -115.83009,954.97637 c -6.87721,3.09466 -12.83827,6.47368 -18.14917,9.95991"
               id="path3904" />
            <path
               id="path3906"
               d="m -114.35455,956.23058 c -6.87721,3.09466 -12.83827,6.47368 -18.14917,9.95991"
               style="fill:none;stroke:#000080;stroke-width:1px;stroke-linecap:butt;stroke-linejoin:miter;stroke-opacity:1" />
          </g>
          <g
             style="stroke:#000080"
             id="g3913"
             transform="matrix(-1,0,0,1,-249.44047,0)">
            <path
               style="fill:none;stroke:#000080;stroke-width:1px;stroke-linecap:butt;stroke-linejoin:miter;stroke-opacity:1"
               d="m -116.93675,101.13865 c -6.87721,3.09466 -12.83827,6.47368 -18.14917,9.95991"
               id="path3915"
               transform="translate(0,852.36218)" />
            <path
               id="path3917"
               d="m -115.83009,954.97637 c -6.87721,3.09466 -12.83827,6.47368 -18.14917,9.95991"
               style="fill:none;stroke:#000080;stroke-width:1px;stroke-linecap:butt;stroke-linejoin:miter;stroke-opacity:1" />
            <path
               style="fill:none;stroke:#000080;stroke-width:1px;stroke-linecap:butt;stroke-linejoin:miter;stroke-opacity:1"
               d="m -114.35455,956.23058 c -6.87721,3.09466 -12.83827,6.47368 -18.14917,9.95991"
               id="path3919" />
          </g>
        </g>
        <path
           id="path3826"
           d="m 40.723179,1031.3032 70.536541,0 c 4.36575,9.7129 10.48932,17.5516 18.68666,20.0394 l -107.889608,-0.01 c 8.978618,-2.8192 14.946605,-11.5265 18.666407,-20.0368 z"
           style="fill:url(#linearGradient3040);fill-opacity:1;stroke:none" />
      </g>
    </g>
  </g>
</svg>
